<?xml version="1.0" encoding="utf-8"?>
<!-- Generator: Adobe Illustrator 22.1.0, SVG Export Plug-In . SVG Version: 6.00 Build 0)  -->
<svg version="1.1" id="Calque_1" xmlns="http://www.w3.org/2000/svg" xmlns:xlink="http://www.w3.org/1999/xlink" x="0px" y="0px"
	 viewBox="0 0 13.8 13.8" style="enable-background:new 0 0 13.8 13.8;" xml:space="preserve">
<style type="text/css">
	.st0{fill:transparent;}
</style>
<g>
	<g>
		<path class="st0" d="M-1.7,13.8c0-4.6,0-9.2,0-13.8c6,0,12,0,18,0c0,4.6,0,9.2,0,13.8C10.3,13.8,4.3,13.8-1.7,13.8z M8,7.8
			C8,7.8,8,7.8,8,7.8c0.1,0,0.2,0,0.3,0c0.3-0.1,0.7-0.2,1-0.3c0.1,0,0.3-0.1,0.4-0.2c0.1-0.1,0.1-0.2,0-0.3C9.6,7,9.6,6.9,9.5,6.9
			C9.3,6.6,9,6.4,8.7,6.2C8.6,6.1,8.4,5.9,8.3,5.7c-0.1-0.2-0.1-0.3,0-0.5C8.5,5,8.6,4.8,8.6,4.6c0-0.4,0-0.7-0.1-1.1
			c0,0,0-0.1,0-0.1c0.1-0.1,0.2-0.2,0.3-0.3c0.2-0.3,0.4-0.5,0.3-0.9C9,1.5,8.6,1,7.9,0.8C7.4,0.5,6.7,0.6,6.1,0.7
			C5.7,0.8,5.3,1,5,1.2C4.9,1.3,4.8,1.3,4.6,1.4C4.6,1.2,4.5,0.9,4.4,0.7C4.3,0.7,4.2,0.8,4.2,0.9c0,0,0,0.1,0,0.1
			c0.2,0.1,0.2,0.3,0.3,0.5c0,0-0.1,0-0.1,0.1C3.9,1.9,3.4,2.3,2.9,2.8c-0.4,0.5-0.8,1-1.2,1.4c0,0-0.1,0.1-0.1,0.1
			c-0.1,0.1,0,0.2,0.1,0.3c0.1,0,0.1,0.1,0.2,0.1c0.3,0.1,0.6,0.1,0.9,0.1c0,0,0.1,0,0.1,0c0,0,0,0,0,0c0,0-0.1,0-0.1,0.1
			C2.7,5.1,2.6,5.3,2.4,5.4C2.3,5.6,2.4,5.6,2.5,5.7c0.2,0.1,0.4,0.1,0.6,0.2c0.1,0,0.1,0,0.1,0.1c0,0.4,0.1,0.8,0.2,1.2
			C3.6,7.5,3.7,7.8,4,8c0.1,0,0.1,0.1,0.2,0.1c0,0,0,0,0,0c0,0-0.1,0-0.1-0.1C3.9,7.8,3.7,7.6,3.6,7.3C3.4,6.9,3.3,6.4,3.3,5.9
			c0-0.1,0-0.1-0.1-0.1C3,5.8,2.8,5.7,2.6,5.7C2.4,5.6,2.4,5.5,2.5,5.4C2.7,5.2,2.9,5,3,4.9c0,0,0.1,0,0.1,0c0.5,0,0.9-0.1,1.4-0.1
			c0.7-0.1,1.4-0.2,2.1-0.4C7.1,4.1,7.6,4,8,3.7c0.1-0.1,0.3-0.1,0.4-0.2c0,0,0,0,0,0c0.1,0.3,0.1,0.7,0.1,1c0,0.2-0.1,0.5-0.2,0.6
			C8.2,5.3,8.2,5.4,8.2,5.6c0,0.2,0.1,0.3,0.2,0.4C8.7,6.3,9,6.5,9.2,6.7c0.1,0.1,0.3,0.2,0.4,0.4c0.1,0.1,0.1,0.1,0,0.2
			C9.6,7.3,9.5,7.3,9.4,7.4C9,7.5,8.6,7.6,8.2,7.7C8.1,7.8,8,7.8,8,7.8z M7.3,10.1C7,8.9,6.7,7.8,6.6,6.5C6.3,6.8,6.1,7.2,5.9,7.6
			C5.7,7.3,5.5,6.9,5.4,6.6c0,0,0,0,0,0c0,0.5-0.1,1-0.3,1.5C4.9,8.7,4.8,9.3,4.6,10c0,0.1,0,0.1,0,0.1c0.1,0,0.1,0,0.1-0.1
			c0-0.1,0-0.1,0-0.2C5,9,5.2,8.3,5.4,7.5c0-0.1,0-0.2,0.1-0.4c0,0,0,0,0,0c0.1,0.2,0.2,0.5,0.3,0.7c0,0,0,0.1,0,0.1
			c0,0.1,0,0.3,0,0.4c0,0.1,0,0.3,0.1,0.3c0,0,0.1,0.1,0.2,0.1c0.1,0,0.1-0.1,0.1-0.2c0,0,0,0,0-0.1C6.1,8.3,6.1,8.1,6,7.9
			c0,0,0-0.1,0-0.1c0.1-0.2,0.1-0.3,0.2-0.5C6.3,7.2,6.4,7,6.5,6.9c0,0,0,0,0,0C6.6,7.9,6.8,9,7.1,10C7,10,7,10,6.9,10
			c-0.4,0-0.8,0-1.1,0c0,0-0.1,0-0.1,0c0,0,0,0,0,0C6.2,10.2,6.7,10.1,7.3,10.1z M3.4,9.9C3.2,10,3,10,2.9,10
			c-0.2,0-0.2-0.1-0.2-0.3c0-0.2,0.1-0.3,0.2-0.4C2.9,9.2,3,9.2,3.1,9.2c0.1,0,0.2,0.1,0.2,0.3c0,0-0.1,0-0.1,0c-0.1,0-0.2,0-0.3,0
			c-0.1,0-0.1,0-0.1,0.1c0,0,0.1,0.1,0.1,0.1c0.2,0,0.3,0,0.5,0c0,0,0.1,0,0.1-0.1c0-0.1,0-0.2,0-0.2C3.3,9,2.9,9,2.7,9.2
			C2.6,9.4,2.5,9.6,2.5,9.8c0,0,0,0.1,0,0.1C2.3,9.8,2.1,9.8,1.8,9.8c-0.2,0-0.5,0.1-0.7,0.2c0,0,0-0.1,0-0.1C1.2,9.4,1.3,9,1.4,8.5
			c0.1-0.5,0.1-1,0.1-1.5c0-0.1,0-0.3-0.1-0.4c0-0.1,0-0.1-0.1-0.1c-0.1,0-0.1,0-0.1,0.1c0,0,0,0,0,0c0.1,0.3,0.1,0.6,0,1
			C1.3,8.4,1.2,9,1,9.7c0,0.2-0.1,0.4-0.1,0.6c0,0,0.1,0,0.1-0.1C1.2,10,1.5,9.9,1.9,9.9c0.3,0,0.6,0.1,0.8,0.2c0.2,0.1,0.3,0,0.5,0
			C3.3,10.1,3.3,10,3.4,9.9z M10.1,10.1c0,0,0,0.1,0,0.1c0,0.2,0,0.4,0,0.6c0,0.7,0.1,1.3,0.2,1.9c0.1,0.2,0.2,0.5,0.3,0.7
			c0,0,0,0,0,0.1c0,0,0-0.1,0-0.1c-0.1-0.2-0.1-0.4-0.2-0.6c-0.1-0.5-0.2-0.9-0.2-1.4c0-0.4,0-0.8,0-1.3c0-0.2,0-0.5,0-0.7
			c0,0,0,0,0,0c0,0.1-0.1,0.2-0.1,0.3c0,0.1-0.1,0.3-0.2,0.4c-0.1,0.1-0.3,0.1-0.4,0C9.4,10.1,9.3,10,9.3,9.9c0-0.2,0-0.3,0-0.5
			c0-0.3,0.1-0.5,0.2-0.7C9.7,8.6,9.8,8.6,10,8.6c0.1,0,0.1,0.1,0.2,0.2c0,0,0.1,0,0.1,0c0,0,0-0.1,0-0.1c-0.1,0-0.1-0.1-0.2-0.1
			C9.9,8.4,9.6,8.4,9.4,8.7C9.3,8.8,9.2,9,9.2,9.2c0,0.2-0.1,0.4,0,0.7c0,0.2,0.2,0.3,0.4,0.4C9.8,10.4,9.9,10.3,10.1,10.1
			C10.1,10.1,10.1,10.1,10.1,10.1z M8.2,8.1C8.1,8.2,8.1,8.2,8.2,8.1C7.9,8.8,7.7,9.4,7.4,9.9c0,0.1,0,0.1,0.1,0.2
			c0.1,0,0.2,0,0.3,0c0.4,0,0.8,0,1.2,0c0,0,0,0,0,0C8.8,9.5,8.5,8.8,8.2,8.1z M10.9,10.5C11,10.5,11,10.5,10.9,10.5
			c0,0,0.1,0,0.1,0c0.6,0,1.1-0.1,1.6-0.3c0.2-0.1,0.3-0.1,0.5-0.2c0.1-0.1,0.2-0.2,0.1-0.3c0-0.1-0.1-0.2-0.2-0.3
			c-0.1-0.1-0.2-0.1-0.3-0.2c-0.1-0.1-0.2-0.1-0.3-0.2c-0.1-0.1-0.1-0.3,0-0.4c0.1,0,0.1-0.1,0.2-0.1c0.1,0,0.3,0,0.4-0.1
			c0.1,0,0.1,0,0.1-0.1c0,0,0-0.1-0.1-0.1c-0.2,0-0.5,0-0.7,0.2c-0.2,0.1-0.3,0.4-0.1,0.6c0.1,0.1,0.1,0.1,0.2,0.2
			c0.1,0.1,0.3,0.1,0.4,0.2c0.1,0,0.1,0.1,0.2,0.2c0.1,0.1,0.1,0.2-0.1,0.3c0,0-0.1,0-0.1,0.1c-0.3,0.2-0.6,0.2-1,0.3
			C11.7,10.3,11.3,10.4,10.9,10.5C11,10.5,11,10.5,10.9,10.5z M10.9,8.4C10.9,8.4,10.9,8.4,10.9,8.4C10.8,8.5,10.8,8.5,10.9,8.4
			c-0.2,0.4-0.3,0.7-0.4,1c0,0.2,0,0.3,0,0.5c0,0.1,0.1,0.2,0.3,0.2c0.4,0.1,0.7-0.2,0.8-0.5c0.1-0.3,0-0.6-0.2-0.9c0,0-0.1,0-0.1,0
			c0,0,0,0.1,0,0.1c0,0,0,0,0,0.1c0.1,0.2,0.2,0.4,0.2,0.6c0,0.4-0.3,0.6-0.6,0.6c-0.1,0-0.2,0-0.2-0.2c0-0.1,0-0.2,0-0.3
			c0.1-0.3,0.1-0.6,0.2-0.9C10.9,8.6,10.9,8.5,10.9,8.4z M6.4,5.1C6.4,5.1,6.4,5.1,6.4,5.1C6.4,5.1,6.4,5.1,6.4,5.1
			c-0.2,0-0.2,0.1-0.2,0.2c0,0.1,0,0.1,0.1,0.2c0,0,0.1,0,0.1,0c0.1,0.1,0.1,0.1,0,0.2c-0.1,0.1-0.1,0.2,0,0.3C6.5,6,6.6,6,6.7,5.9
			c0.2-0.2,0.2-0.3,0.2-0.6c0-0.1-0.1-0.1-0.1-0.2C6.7,5.1,6.5,5.1,6.4,5.1z M11.9,8.4C11.9,8.4,11.9,8.4,11.9,8.4
			C11.9,8.4,11.9,8.4,11.9,8.4C11.7,9,11.8,9.5,11.8,10c0,0.1,0.1,0.1,0.1,0c0,0,0-0.1,0-0.1c0-0.4,0-0.9-0.1-1.3
			C11.9,8.5,11.9,8.5,11.9,8.4z M12,7.8C12,7.8,12,7.7,12,7.8c-0.1-0.1-0.1-0.1-0.1-0.1c-0.1,0.1-0.1,0.1-0.1,0.2
			c0,0.1,0,0.1,0.1,0.1C12,8,12,7.9,12,7.8z"/>
		<path d="M8,7.8c0.1,0,0.1-0.1,0.2-0.1C8.6,7.6,9,7.5,9.4,7.4c0.1,0,0.2-0.1,0.3-0.1c0.1,0,0.1-0.1,0-0.2C9.5,6.9,9.4,6.8,9.2,6.7
			C9,6.5,8.7,6.3,8.5,6C8.4,5.9,8.3,5.7,8.2,5.6c0-0.1,0-0.3,0.1-0.4C8.5,5,8.5,4.8,8.6,4.6c0-0.3,0-0.7-0.1-1c0,0,0,0,0,0
			C8.3,3.6,8.2,3.7,8,3.7C7.6,4,7.1,4.1,6.6,4.3C5.9,4.5,5.2,4.6,4.5,4.7C4,4.8,3.6,4.8,3.1,4.8c0,0-0.1,0-0.1,0
			C2.9,5,2.7,5.2,2.5,5.4C2.4,5.5,2.4,5.6,2.6,5.7C2.8,5.7,3,5.8,3.2,5.8c0.1,0,0.1,0,0.1,0.1c0,0.5,0.1,0.9,0.2,1.4
			C3.7,7.6,3.9,7.8,4.1,8c0,0,0.1,0,0.1,0.1c0,0,0,0,0,0C4.2,8.1,4.1,8,4,8C3.7,7.8,3.6,7.5,3.5,7.2C3.3,6.8,3.3,6.4,3.2,6
			c0-0.1,0-0.1-0.1-0.1C2.9,5.8,2.7,5.8,2.5,5.7C2.4,5.6,2.3,5.6,2.4,5.4c0.1-0.2,0.3-0.3,0.4-0.5c0,0,0,0,0.1-0.1c0,0,0,0,0,0
			c0,0-0.1,0-0.1,0c-0.3,0-0.6,0-0.9-0.1c-0.1,0-0.1,0-0.2-0.1C1.6,4.6,1.6,4.5,1.7,4.4c0-0.1,0.1-0.1,0.1-0.1
			c0.4-0.4,0.8-0.9,1.2-1.4c0.4-0.5,0.9-0.9,1.5-1.3c0,0,0,0,0.1-0.1C4.4,1.3,4.3,1.1,4.2,1c0,0-0.1-0.1,0-0.1
			c0.1-0.1,0.2-0.2,0.3-0.2c0.1,0.3,0.1,0.5,0.2,0.7C4.8,1.3,4.9,1.3,5,1.2C5.3,1,5.7,0.8,6.1,0.7c0.6-0.2,1.2-0.2,1.8,0.1
			C8.6,1,9,1.5,9.2,2.3c0,0.3-0.1,0.6-0.3,0.9C8.7,3.3,8.6,3.4,8.5,3.4c0,0,0,0.1,0,0.1c0.1,0.4,0.2,0.7,0.1,1.1
			c0,0.2-0.1,0.4-0.2,0.6c-0.1,0.2-0.1,0.3,0,0.5c0.1,0.2,0.2,0.3,0.4,0.5C9,6.4,9.3,6.6,9.5,6.9C9.6,6.9,9.6,7,9.7,7
			c0.1,0.1,0.1,0.2,0,0.3C9.5,7.4,9.4,7.4,9.3,7.5c-0.3,0.1-0.7,0.2-1,0.3C8.1,7.8,8,7.8,8,7.8C8,7.8,8,7.8,8,7.8z"/>
		<path d="M7.3,10.1c-0.6,0-1.1,0-1.6-0.1c0,0,0,0,0,0c0,0,0.1,0,0.1,0c0.4,0,0.8,0,1.1,0C7,10,7,10,7.1,10c-0.3-1-0.5-2-0.6-3.1
			c0,0,0,0,0,0C6.4,7,6.3,7.2,6.2,7.4C6.1,7.5,6.1,7.7,6,7.8c0,0,0,0.1,0,0.1c0.1,0.2,0.1,0.4,0.2,0.5c0,0,0,0,0,0.1
			c0,0.1,0,0.1-0.1,0.2C6,8.8,6,8.7,5.9,8.7C5.8,8.6,5.8,8.5,5.8,8.3c0-0.1,0-0.3,0-0.4c0,0,0-0.1,0-0.1C5.7,7.6,5.6,7.4,5.5,7.1
			c0,0,0,0,0,0c0,0.1,0,0.3-0.1,0.4C5.2,8.3,5,9,4.8,9.8c0,0.1,0,0.1,0,0.2c0,0.1,0,0.1-0.1,0.1c0,0-0.1-0.1,0-0.1
			c0.2-0.6,0.3-1.3,0.5-1.9c0.1-0.5,0.2-1,0.3-1.5c0,0,0,0,0,0c0.2,0.4,0.3,0.7,0.5,1.1c0.2-0.4,0.4-0.8,0.8-1.1
			C6.7,7.8,7,8.9,7.3,10.1z M6,8.5C6,8.5,6,8.5,6,8.5c0-0.1,0-0.2,0-0.3c0,0,0,0,0,0C5.9,8.3,5.9,8.5,6,8.5z"/>
		<path d="M3.4,9.9c0,0.1-0.1,0.1-0.2,0.2c-0.2,0.1-0.3,0.1-0.5,0C2.5,10,2.2,9.9,1.9,9.9C1.5,9.9,1.2,10,1,10.3c0,0,0,0-0.1,0.1
			C0.9,10.1,1,9.9,1,9.7C1.2,9,1.3,8.4,1.3,7.7c0-0.3,0-0.6,0-1c0,0,0,0,0,0c0-0.1,0-0.1,0.1-0.1c0,0,0.1,0,0.1,0.1
			c0,0.1,0,0.3,0.1,0.4c0,0.5,0,1-0.1,1.5C1.3,9,1.2,9.4,1.2,9.9c0,0,0,0,0,0.1c0.2-0.1,0.5-0.2,0.7-0.2c0.2,0,0.5,0,0.7,0.1
			c0,0,0-0.1,0-0.1c0-0.3,0-0.5,0.2-0.7C2.9,9,3.3,9,3.4,9.3c0,0.1,0,0.2,0,0.2c0,0,0,0.1-0.1,0.1c-0.2,0-0.3,0-0.5,0
			c0,0-0.1,0-0.1-0.1c0-0.1,0-0.1,0.1-0.1c0.1,0,0.2,0,0.3,0c0,0,0.1,0,0.1,0c0-0.1-0.1-0.2-0.2-0.3c-0.1,0-0.2,0-0.3,0.1
			C2.7,9.4,2.7,9.5,2.7,9.7c0,0.2,0.1,0.3,0.2,0.3C3,10,3.2,10,3.4,9.9z"/>
		<path d="M10.1,10.1C10.1,10.1,10.1,10.1,10.1,10.1c-0.2,0.2-0.4,0.3-0.6,0.2c-0.2-0.1-0.3-0.2-0.4-0.4c-0.1-0.2,0-0.4,0-0.7
			c0-0.2,0.1-0.4,0.2-0.6c0.2-0.3,0.4-0.3,0.7-0.1c0.1,0,0.1,0.1,0.2,0.1c0,0,0,0.1,0,0.1c0,0-0.1,0-0.1,0C10.1,8.7,10,8.7,10,8.6
			C9.8,8.6,9.7,8.6,9.6,8.7C9.4,8.9,9.3,9.2,9.3,9.4c0,0.2,0,0.3,0,0.5c0,0.1,0.1,0.2,0.2,0.2c0.2,0.1,0.3,0.1,0.4,0
			c0.1-0.1,0.2-0.2,0.2-0.4c0-0.1,0.1-0.2,0.1-0.3c0,0,0,0,0,0c0,0.2,0,0.5,0,0.7c0,0.4,0,0.9,0,1.3c0,0.5,0.1,0.9,0.2,1.4
			c0.1,0.2,0.1,0.4,0.2,0.6c0,0,0,0,0,0.1c0,0,0,0,0-0.1c-0.1-0.2-0.2-0.4-0.3-0.7c-0.2-0.6-0.2-1.3-0.2-1.9c0-0.2,0-0.4,0-0.6
			C10.1,10.1,10.1,10.1,10.1,10.1z"/>
		<path d="M8.2,8.1c0.3,0.7,0.6,1.4,0.9,2.1c0,0,0,0,0,0c-0.4,0-0.8,0-1.2,0c-0.1,0-0.2,0-0.3,0c-0.1,0-0.1-0.1-0.1-0.2
			C7.7,9.4,7.9,8.8,8.2,8.1C8.1,8.2,8.1,8.2,8.2,8.1z M8.2,8.5C8.2,8.5,8.2,8.5,8.2,8.5C8,9,7.8,9.5,7.6,10c0.4,0,0.8,0,1.3,0
			C8.6,9.5,8.4,9,8.2,8.5z"/>
		<path d="M10.9,10.5C11,10.5,11,10.5,10.9,10.5c0.4-0.1,0.7-0.2,1-0.2c0.3-0.1,0.7-0.1,1-0.3c0,0,0.1,0,0.1-0.1
			c0.1-0.1,0.1-0.2,0.1-0.3c0-0.1-0.1-0.1-0.2-0.2c-0.1-0.1-0.3-0.1-0.4-0.2c-0.1,0-0.1-0.1-0.2-0.2c-0.2-0.2-0.1-0.5,0.1-0.6
			c0.2-0.1,0.5-0.2,0.7-0.2c0,0,0.1,0,0.1,0.1c0,0,0,0.1-0.1,0.1c-0.1,0-0.3,0-0.4,0.1c-0.1,0-0.2,0.1-0.2,0.1
			c-0.2,0.1-0.2,0.3,0,0.4c0.1,0.1,0.2,0.1,0.3,0.2c0.1,0.1,0.2,0.1,0.3,0.2c0.1,0.1,0.2,0.2,0.2,0.3c0,0.1,0,0.3-0.1,0.3
			c-0.1,0.1-0.3,0.2-0.5,0.2c-0.5,0.2-1.1,0.3-1.6,0.3C11,10.5,11,10.5,10.9,10.5C11,10.5,11,10.5,10.9,10.5z"/>
		<path d="M10.9,8.4c0,0.1,0,0.1,0,0.2c-0.1,0.3-0.1,0.6-0.2,0.9c0,0.1,0,0.2,0,0.3c0,0.1,0.1,0.2,0.2,0.2c0.3,0,0.6-0.2,0.6-0.6
			c0-0.2-0.1-0.4-0.2-0.6c0,0,0,0,0-0.1c0,0,0-0.1,0-0.1c0,0,0.1,0,0.1,0c0.1,0.3,0.2,0.6,0.2,0.9c-0.1,0.4-0.5,0.6-0.8,0.5
			c-0.1,0-0.2-0.1-0.3-0.2c-0.1-0.2,0-0.3,0-0.5C10.6,9.1,10.6,8.8,10.9,8.4C10.8,8.5,10.8,8.5,10.9,8.4C10.9,8.4,10.9,8.4,10.9,8.4
			z"/>
		<path d="M6.4,5.1c0.1,0,0.2,0.1,0.4,0.1c0.1,0,0.1,0.1,0.1,0.2c0,0.2,0,0.4-0.2,0.6C6.6,6,6.5,6,6.4,5.9c-0.1-0.1-0.1-0.2,0-0.3
			c0.1-0.1,0.1-0.1,0-0.2c0,0-0.1,0-0.1,0C6.2,5.4,6.2,5.3,6.2,5.2C6.2,5.1,6.3,5.1,6.4,5.1C6.4,5.1,6.4,5.1,6.4,5.1
			C6.4,5.1,6.4,5.1,6.4,5.1z"/>
		<path d="M11.9,8.4c0,0.1,0,0.1,0,0.2c0,0.4,0,0.9,0.1,1.3c0,0,0,0.1,0,0.1c0,0-0.1,0-0.1,0C11.8,9.5,11.7,9,11.9,8.4
			C11.9,8.4,11.9,8.4,11.9,8.4C11.9,8.4,11.9,8.4,11.9,8.4z"/>
		<path d="M12,7.8C12,7.9,12,8,11.9,8c-0.1,0-0.1,0-0.1-0.1c0-0.1,0-0.2,0.1-0.2C11.9,7.7,12,7.7,12,7.8C12,7.7,12,7.8,12,7.8z"/>
		<path class="st0" d="M6,8.5C5.9,8.5,5.9,8.3,5.9,8.2c0,0,0,0,0,0C6,8.3,6,8.4,6,8.5C6,8.5,6,8.5,6,8.5z"/>
		<path class="st0" d="M8.2,8.5C8.4,9,8.6,9.5,8.9,10c-0.4,0-0.9,0-1.3,0C7.8,9.5,8,9,8.2,8.5C8.2,8.5,8.2,8.5,8.2,8.5z"/>
	</g>
</g>
</svg>
