<?xml version="1.0" encoding="utf-8"?>
<!-- Generator: Adobe Illustrator 22.1.0, SVG Export Plug-In . SVG Version: 6.00 Build 0)  -->
<svg version="1.1" id="Calque_1" xmlns="http://www.w3.org/2000/svg" xmlns:xlink="http://www.w3.org/1999/xlink" x="0px" y="0px"
	 viewBox="0 0 437 437.8" style="enable-background:new 0 0 437 437.8;" xml:space="preserve">
<style type="text/css">
	.st0{fill:transparent;}
</style>
<g>
	<path class="st0" d="M-64.5,438.3c0-145.9,0-291.8,0-437.8c189.9,0,379.9,0,569.9,0c0,145.9,0,291.8,0,437.8
		C315.5,438.3,125.5,438.3-64.5,438.3z M241.5,247.8c0.1,0.3,0.1,0.7,0.2,1c2.7-0.4,5.4-0.6,8-1.4c11-3.2,22-6.3,32.9-10
		c4.6-1.5,9-3.9,13.2-6.5c3.8-2.4,4-4.8,1.1-8.2c-1.7-2-3.7-3.9-5.7-5.6c-8.2-7-16.5-13.7-24.6-20.8c-5-4.4-9.5-9.4-12.6-15.5
		c-2.9-5.7-3-11,1.4-16.2c4.4-5.2,6.3-11.6,7.1-18.3c1.4-11.7-0.5-23-3.4-34.2c-0.4-1.6-0.1-2.4,1.2-3.4c3.1-2.5,6.3-5.1,9-8.1
		c7.4-8,11.9-17.3,10.3-28.4c-3.3-23.4-16.7-39.2-38.4-48c-18.7-7.6-37.9-6.8-57.1-1.8c-13.4,3.5-25.6,9.7-37.6,16.3
		c-3.2,1.7-6.3,3.5-9.8,5.5c-2.1-7.8-4.1-15.3-6.4-23.5c-3.3,2.8-6.4,5.2-9.3,7.8c-1.3,1.2-1.1,2.4,0.5,3.6c5,3.8,7.7,9.4,10.9,14.6
		c-1,0.7-1.7,1.2-2.4,1.7c-17.9,11.2-33.6,25.1-47.1,41.3C70.3,104.7,58.6,120.2,45,134c-1.3,1.3-2.3,2.9-3.2,4.6
		c-2.2,4.3-1.1,7.9,3.1,10.2c1.7,1,3.6,1.8,5.6,2.3c9.2,2.7,18.6,2.7,28.1,2.8c1,0,2.1,0,3.1,0c0.1,0.3,0.2,0.5,0.3,0.8
		c-0.7,0.6-1.6,1.1-2.2,1.9c-4.5,5.2-9.2,10.2-13.2,15.7c-2.9,4.1-2,6.6,2.8,8.4c6.6,2.4,13.3,4.4,20,6.3c1.9,0.6,2.6,1.3,2.7,3.3
		c0.4,13.4,2.1,26.5,6.7,39.2c3.6,9.7,8.6,18.5,17.5,24.3c2.1,1.4,4.6,2.1,7.5,3.3c-0.3-0.9-0.4-1-0.4-1.1c-0.9-0.7-1.8-1.4-2.8-1.9
		c-9.1-5.3-14.9-13.2-18.7-22.7c-5.7-13.9-7.5-28.5-7.7-43.3c0-1.7-0.5-2.3-2.1-2.7c-6.7-1.8-13.4-3.7-19.9-5.9
		c-5.8-2-6.2-3.4-2.4-8.1c4.8-5.8,10.1-11.1,15.2-16.5c0.7-0.7,2-0.9,3.1-1c14.4-1.4,28.9-2.4,43.3-4.3c22.1-2.9,43.9-7.4,65.4-13.4
		c16.2-4.5,32.1-9.7,47.1-17.4c4.1-2.1,8.1-4.5,12.3-6.9c0.2,0.4,0.4,0.7,0.5,1.1c2.6,10.4,4.4,20.8,3.5,31.6
		c-0.6,7.5-2.9,14.3-7.8,20.2c-2.9,3.5-3.5,7.7-2.4,12.1c1.2,4.9,3.9,9,7.1,12.8c7.3,8.8,16.2,15.7,24.9,22.9
		c4.5,3.7,8.8,7.6,13,11.6c2.1,2,1.9,3.3-0.5,4.9c-2.5,1.7-5.2,3.4-8,4.4c-12.6,4.2-25.3,8-38,12C246.1,246.2,243.8,247,241.5,247.8
		z M220.8,321.5c-9.9-38.1-20-75.7-20.8-115.4c-10.5,10.7-18.9,22.1-24,36c-5.6-11.7-11-23-16.4-34.4c-0.2,0.1-0.5,0.2-0.7,0.3
		c-0.5,16.4-4.4,32.3-8.3,48.1c-4.8,20-10.1,39.9-15.2,59.8c-0.5,1.8,0,3,1.5,3.5c1.7,0.6,2.7-0.5,3.1-2.2c0.4-1.9,0.9-3.8,1.4-5.6
		c6.2-25,12.3-49.9,18.4-74.9c1-3.9,1.6-7.9,2.4-12.1c0.4,0.5,0.7,0.6,0.7,0.8c3.4,7.7,6.8,15.5,10.2,23.3c0.4,0.9,0.3,2,0.2,3
		c-0.3,4.1-1,8.2-0.9,12.3c0,4.1,0.8,8.1,4.1,11c1.6,1.4,3.4,2.6,5.7,1.7c2.3-1,2.5-3.1,2.5-5.3c0-0.7,0-1.5-0.2-2.2
		c-1.7-5.8-3.5-11.6-5.1-17.4c-0.3-1.2-0.6-2.8-0.1-3.9c1.8-4.9,3.6-9.9,6-14.5c2.8-5.2,6.3-10,9.5-15c0.3,0.1,0.6,0.2,0.9,0.3
		c2.5,33.3,10.5,65.6,18.9,98.2c-2.5,0-4.6-0.1-6.8,0c-12,0.4-24,0.9-36,1.4c-1.1,0-2.2,0.5-3.3,0.8c0,0.2,0.1,0.5,0.1,0.7
		C185.8,322.9,203.2,321,220.8,321.5z M95.6,315.2c-5,2.9-9.6,3-14.4,2c-5-1.1-7.5-4.2-7.6-9.2c0-5.3,1.8-9.9,5.4-13.8
		c2.7-2.9,6-3.2,9.5-1.9c3.1,1.2,5.2,4.3,5.3,8.3c-0.9,0-1.9,0-2.8,0c-3.5,0-6.9,0-10.4,0c-1.8,0-3.1,0.9-2.8,2.5
		c0.2,1,1.7,2.4,2.7,2.4c5.5,0.2,11,0.1,16.5,0.1c1.6,0,2.3-0.7,2-2.2c-0.4-2.6-0.5-5.4-1.5-7.8c-3.5-9.2-14.9-11.7-21.8-4.7
		c-5.6,5.7-7.9,12.6-6.6,20.6c0.2,1.1,0.5,2.1,0.9,3.5c-7.4-3.3-14.8-4.4-22.5-4.3c-7.7,0.1-15,2-22.2,5.7c0.2-1.2,0.3-2,0.5-2.7
		c2.5-14.4,5.3-28.7,7.5-43.1c2.3-15.3,3.5-30.6,2.6-46.1c-0.3-4.6-1.1-9.1-1.7-13.7c-0.2-1.7-1.2-2.5-2.8-2.3
		c-1.6,0.3-2.2,1.5-1.9,3.1c0.1,0.4,0.1,0.8,0.2,1.2c1.8,10.1,2,20.2,1.4,30.4c-1.2,22-4.7,43.6-9.2,65.1c-1.4,6.7-3,13.3-4.6,20.4
		c1-0.9,1.7-1.5,2.4-2.1c8.1-8.1,18.1-11.2,29.3-11.1c9.2,0,18,2.4,26.7,5.2c5,1.6,9.9,1.2,14.7-0.4
		C92.6,319.4,94.4,318.2,95.6,315.2z M311,319.1c0,1.6,0,2.4,0,3.3c0,6.9-0.1,13.7-0.1,20.6c0.2,20.6,2.1,41.1,7.6,61
		c2.1,7.4,5,14.5,9.2,21c0.4,0.6,0.9,1.1,1.4,1.7c0.3-1,0.3-1.8,0-2.6c-1.6-6-3.1-12-4.9-18c-4.3-14.3-6.9-28.9-7.6-43.7
		c-0.6-13.4-0.4-26.9-0.8-40.4c-0.2-7.7-0.9-15.3-1.4-23c-0.3,0-0.6,0-1,0c-0.8,3.1-1.7,6.1-2.5,9.2c-1.1,4.5-3.5,8.3-6.9,11.4
		c-4.1,3.8-8.7,4.2-13.5,1.3c-2.9-1.8-5-4.4-5.4-7.7c-0.6-4.8-0.9-9.8-0.5-14.6c0.6-8,3-15.5,7.9-22c3.3-4.3,7.9-5.3,12.7-2.7
		c2.4,1.3,4.5,3.1,6.6,4.8c1.3,1.1,2.6,1,3.7-0.1c1.1-1.1,0.9-2.4-0.3-3.4c-1.8-1.5-3.5-3.1-5.4-4.4c-8.2-5.6-16.7-3.9-22.2,4.3
		c-3.6,5.5-5.7,11.5-7,17.9c-1.3,6.9-1.8,13.8-0.2,20.6c1.6,6.6,5.4,11,12,13c6.5,2,11.7-0.1,16.1-4.9
		C309.2,321,309.8,320.3,311,319.1z M247.7,257.2c-0.5,1.2-0.9,2-1.2,2.7c-7.1,18.4-14.2,36.7-21.3,55.1c-1.2,3-0.5,4.4,2.7,5
		c3.4,0.6,6.8,1.3,10.3,1.5c12.7,0.5,25.3,0.7,38,1.1c0.3,0,0.6-0.1,1.1-0.2C267.4,300.6,257.6,279.1,247.7,257.2z M336.4,332.7
		c0,0.2,0.1,0.5,0.1,0.7c1.1,0.1,2.2,0.1,3.3,0.2c17.8,0.3,34.9-3.7,51.7-9.2c5.1-1.7,10-4.4,14.7-7.2c3.9-2.4,5.2-6.4,3.9-11
		c-1-3.7-3.1-6.8-6.2-9c-3.4-2.3-7.1-4.1-10.6-6.3c-3.1-1.9-6.4-3.6-9-6c-4.2-3.9-3.5-9,1.4-11.9c2.2-1.3,4.6-2.3,7.1-2.9
		c4.2-0.9,8.4-1.4,12.6-2c1.7-0.2,2.7-1.1,2.6-2.6c-0.1-0.8-1.4-2.2-2.2-2.2c-7.8,0.2-15.5,1.2-22.4,5.1c-7.5,4.3-8.9,12.9-2.9,19.2
		c1.8,1.9,4,3.5,6.2,4.9c4,2.4,8.3,4.3,12.2,6.8c2.1,1.3,4.1,3.3,5.5,5.3c2.5,3.7,1.9,6.2-1.7,8.9c-1.1,0.8-2.3,1.6-3.5,2.2
		c-9.6,4.9-20,7.2-30.4,9.4c-9.9,2.1-19.9,4.2-29.8,6.4C338.1,332,337.2,332.4,336.4,332.7z M334.7,267c-0.9,0.5-1.1,0.6-1.2,0.8
		c-0.4,0.6-0.8,1.2-1.2,1.8c-5.4,9.2-8.5,19.1-9.9,29.6c-0.7,5.1-1,10.1,0.7,15.1c1.3,4.1,4.1,6.7,8.3,7.6
		c11.1,2.3,23.3-5.7,25.4-16.8c2-10.5-1.3-20.1-5.4-29.5c-0.3-0.7-1.8-0.8-2.8-1.2c-0.4,1-0.9,2-1.1,3.1c-0.1,0.5,0.4,1.2,0.7,1.8
		c2.8,6.5,4.8,13.2,4.8,20.3c0,12.8-9.1,17.7-18.7,18.1c-3.8,0.2-6.3-1.6-7-5.3c-0.7-3.5-1.2-7.3-0.6-10.7c1.8-9.6,4.3-19,6.5-28.5
		C333.6,271.3,334.1,269.4,334.7,267z M192.5,160.2c0,0.2-0.1,0.3-0.1,0.5c-0.4,0-0.8,0-1.2,0c-3.5,0.1-5.4,1.5-6.1,4.4
		c-0.7,2.8,0.3,4.7,3.3,6.5c1,0.6,2,1,3,1.5c3.7,1.7,3.8,2.4,0.9,5.1c-2.7,2.6-2.9,5.8-0.5,8.3c2.6,2.7,7.1,2.9,10.1,0.2
		c5.2-4.8,7.2-10.9,6-18c-0.4-2.4-1.7-4.5-4.1-5.3C200.1,162.1,196.3,161.3,192.5,160.2z M366.3,265.7c-0.6,0.5-0.8,0.6-0.9,0.8
		c-0.2,0.5-0.4,1.1-0.5,1.6c-4.1,15.8-1.9,31.7-0.7,47.6c0.1,1.7,2.5,2.6,3.7,1.4c0.7-0.7,1-2,0.9-3c-0.6-14.2-1.3-28.3-2-42.5
		C366.8,269.9,366.5,268,366.3,265.7z M370.9,246.3c-0.3-0.5-0.6-1.9-1.4-2.3c-0.8-0.4-2.3-0.1-3.1,0.4c-2.6,1.6-3.8,4.1-3.7,7.2
		c0.1,2.3,1.5,3.2,3.6,2.2C369.3,252.5,370.5,250,370.9,246.3z"/>
	<path d="M241.5,247.8c2.3-0.8,4.7-1.6,7-2.3c12.7-4,25.4-7.9,38-12c2.9-0.9,5.5-2.7,8-4.4c2.4-1.6,2.6-2.9,0.5-4.9
		c-4.2-4-8.5-7.9-13-11.6c-8.7-7.2-17.6-14.2-24.9-22.9c-3.2-3.8-5.9-7.9-7.1-12.8c-1.1-4.4-0.5-8.6,2.4-12.1
		c4.9-5.9,7.1-12.8,7.8-20.2c0.9-10.7-0.9-21.2-3.5-31.6c-0.1-0.4-0.3-0.7-0.5-1.1c-4.2,2.3-8.2,4.7-12.3,6.9
		c-15,7.7-30.9,12.9-47.1,17.4c-21.5,6-43.3,10.5-65.4,13.4c-14.4,1.9-28.9,2.8-43.3,4.3c-1.1,0.1-2.4,0.3-3.1,1
		c-5.2,5.4-10.5,10.7-15.2,16.5c-3.9,4.7-3.4,6.1,2.4,8.1c6.5,2.3,13.2,4.1,19.9,5.9c1.6,0.5,2.1,1,2.1,2.7
		c0.2,14.9,2,29.4,7.7,43.3c3.9,9.5,9.7,17.5,18.7,22.7c1,0.6,1.9,1.3,2.8,1.9c0.1,0,0.1,0.1,0.4,1.1c-2.9-1.2-5.4-1.9-7.5-3.3
		c-8.9-5.8-13.9-14.6-17.5-24.3c-4.7-12.6-6.3-25.8-6.7-39.2c-0.1-2.1-0.8-2.8-2.7-3.3c-6.7-1.9-13.5-3.9-20-6.3
		c-4.8-1.7-5.8-4.3-2.8-8.4c4-5.5,8.7-10.5,13.2-15.7c0.6-0.7,1.5-1.2,2.2-1.9c-0.1-0.3-0.2-0.5-0.3-0.8c-1,0-2.1,0-3.1,0
		c-9.4-0.1-18.9-0.1-28.1-2.8c-1.9-0.6-3.8-1.3-5.6-2.3c-4.2-2.4-5.3-5.9-3.1-10.2c0.8-1.6,1.9-3.3,3.2-4.6
		c13.7-13.8,25.4-29.3,37.7-44.1c13.5-16.3,29.2-30.1,47.1-41.3c0.7-0.5,1.5-1,2.4-1.7c-3.2-5.3-5.9-10.8-10.9-14.6
		c-1.6-1.2-1.8-2.4-0.5-3.6c2.9-2.6,5.9-5.1,9.3-7.8c2.2,8.2,4.3,15.7,6.4,23.5c3.5-2,6.6-3.8,9.8-5.5c12-6.6,24.3-12.8,37.6-16.3
		c19.2-5,38.4-5.8,57.1,1.8c21.6,8.8,35.1,24.6,38.4,48c1.6,11-2.9,20.4-10.3,28.4c-2.7,2.9-5.9,5.5-9,8.1c-1.3,1-1.5,1.9-1.2,3.4
		c2.8,11.2,4.8,22.6,3.4,34.2c-0.8,6.7-2.6,13-7.1,18.3c-4.4,5.2-4.3,10.5-1.4,16.2c3.1,6,7.6,11.1,12.6,15.5
		c8.1,7.1,16.4,13.8,24.6,20.8c2,1.7,4,3.6,5.7,5.6c2.9,3.4,2.7,5.8-1.1,8.2c-4.1,2.6-8.6,5-13.2,6.5c-10.8,3.6-21.9,6.8-32.9,10
		c-2.6,0.8-5.3,0.9-8,1.4C241.6,248.4,241.5,248.1,241.5,247.8z"/>
	<path d="M220.8,321.5c-17.6-0.5-35,1.4-52.2-1.8c0-0.2-0.1-0.5-0.1-0.7c1.1-0.3,2.2-0.7,3.3-0.8c12-0.5,24-1,36-1.4
		c2.2-0.1,4.3,0,6.8,0c-8.4-32.5-16.4-64.8-18.9-98.2c-0.3-0.1-0.6-0.2-0.9-0.3c-3.2,5-6.7,9.8-9.5,15c-2.5,4.6-4.2,9.6-6,14.5
		c-0.4,1.1-0.2,2.7,0.1,3.9c1.6,5.8,3.4,11.6,5.1,17.4c0.2,0.7,0.2,1.4,0.2,2.2c0,2.2-0.2,4.3-2.5,5.3c-2.3,1-4.1-0.3-5.7-1.7
		c-3.3-2.9-4.1-7-4.1-11c0-4.1,0.6-8.2,0.9-12.3c0.1-1,0.2-2.2-0.2-3c-3.3-7.8-6.8-15.5-10.2-23.3c-0.1-0.2-0.3-0.4-0.7-0.8
		c-0.8,4.2-1.5,8.2-2.4,12.1c-6.1,25-12.3,50-18.4,74.9c-0.5,1.9-1,3.8-1.4,5.6c-0.4,1.7-1.4,2.7-3.1,2.2c-1.5-0.5-2-1.7-1.5-3.5
		c5.1-19.9,10.3-39.8,15.2-59.8c3.8-15.8,7.8-31.7,8.3-48.1c0.2-0.1,0.5-0.2,0.7-0.3c5.4,11.4,10.8,22.8,16.4,34.4
		c5.1-13.8,13.5-25.3,24-36C200.8,245.8,210.9,283.5,220.8,321.5z M179.4,270.8c0.3-0.1,0.6-0.2,0.9-0.2c-0.8-3.2-1.6-6.4-2.4-9.5
		c-0.2,0.1-0.5,0.1-0.7,0.2C177.3,264.6,177.5,267.9,179.4,270.8z"/>
	<path d="M95.6,315.2c-1.2,3-3,4.2-5.1,4.9c-4.8,1.6-9.7,2.1-14.7,0.4c-8.7-2.8-17.5-5.2-26.7-5.2c-11.2,0-21.2,3-29.3,11.1
		c-0.7,0.7-1.4,1.3-2.4,2.1c1.6-7.1,3.2-13.7,4.6-20.4c4.5-21.5,8-43.1,9.2-65.1c0.5-10.2,0.4-20.3-1.4-30.4
		c-0.1-0.4-0.1-0.8-0.2-1.2c-0.2-1.6,0.3-2.8,1.9-3.1c1.6-0.2,2.6,0.6,2.8,2.3c0.6,4.6,1.4,9.1,1.7,13.7c1,15.5-0.3,30.8-2.6,46.1
		c-2.2,14.4-5,28.8-7.5,43.1c-0.1,0.8-0.3,1.5-0.5,2.7c7.3-3.7,14.5-5.6,22.2-5.7c7.7-0.1,15.1,1,22.5,4.3c-0.4-1.4-0.7-2.4-0.9-3.5
		c-1.3-8,1-15,6.6-20.6c6.9-7,18.3-4.5,21.8,4.7c0.9,2.4,1,5.2,1.5,7.8c0.2,1.5-0.5,2.2-2,2.2c-5.5,0-11,0.1-16.5-0.1
		c-1,0-2.5-1.4-2.7-2.4c-0.3-1.6,1-2.5,2.8-2.5c3.5,0,6.9,0,10.4,0c0.9,0,1.9,0,2.8,0c-0.1-3.9-2.2-7.1-5.3-8.3
		c-3.6-1.3-6.8-1-9.5,1.9c-3.6,3.9-5.5,8.5-5.4,13.8c0,5.1,2.6,8.2,7.6,9.2C85.9,318.1,90.6,318.1,95.6,315.2z"/>
	<path d="M311,319.1c-1.2,1.2-1.8,1.9-2.5,2.6c-4.4,4.8-9.6,6.9-16.1,4.9c-6.5-2-10.4-6.5-12-13c-1.6-6.9-1.1-13.8,0.2-20.6
		c1.2-6.4,3.4-12.5,7-17.9c5.5-8.3,14-9.9,22.2-4.3c1.9,1.3,3.6,2.9,5.4,4.4c1.2,1,1.4,2.3,0.3,3.4c-1.1,1.1-2.3,1.1-3.7,0.1
		c-2.1-1.7-4.2-3.5-6.6-4.8c-4.8-2.7-9.4-1.7-12.7,2.7c-4.9,6.5-7.3,14.1-7.9,22c-0.4,4.8,0,9.8,0.5,14.6c0.4,3.3,2.5,5.9,5.4,7.7
		c4.8,3,9.4,2.6,13.5-1.3c3.4-3.1,5.8-6.9,6.9-11.4c0.8-3.1,1.6-6.1,2.5-9.2c0.3,0,0.6,0,1,0c0.5,7.7,1.2,15.3,1.4,23
		c0.4,13.5,0.2,26.9,0.8,40.4c0.7,14.9,3.3,29.5,7.6,43.7c1.8,5.9,3.3,12,4.9,18c0.2,0.8,0.3,1.5,0,2.6c-0.5-0.6-1-1.1-1.4-1.7
		c-4.2-6.5-7.1-13.5-9.2-21c-5.5-20-7.4-40.4-7.6-61c-0.1-6.9,0-13.7,0.1-20.6C311,321.5,311,320.6,311,319.1z"/>
	<path d="M247.7,257.2c9.9,21.9,19.7,43.4,29.5,65.1c-0.5,0.1-0.8,0.2-1.1,0.2c-12.7-0.3-25.3-0.6-38-1.1c-3.4-0.1-6.9-0.9-10.3-1.5
		c-3.2-0.6-3.9-1.9-2.7-5c7.1-18.4,14.2-36.7,21.3-55.1C246.8,259.2,247.1,258.5,247.7,257.2z M248.4,270.2c-0.2,0-0.4,0-0.7,0
		c-6.2,15.9-12.3,31.8-18.4,47.5c13.5,0,26.8,0,40.6,0C262.6,301.5,255.5,285.9,248.4,270.2z"/>
	<path d="M336.4,332.7c0.9-0.3,1.7-0.8,2.6-1c9.9-2.1,19.9-4.2,29.8-6.4c10.4-2.2,20.8-4.5,30.4-9.4c1.2-0.6,2.4-1.4,3.5-2.2
		c3.6-2.7,4.2-5.2,1.7-8.9c-1.4-2.1-3.4-4-5.5-5.3c-3.9-2.5-8.2-4.4-12.2-6.8c-2.3-1.4-4.5-3-6.2-4.9c-5.9-6.4-4.6-14.9,2.9-19.2
		c6.9-4,14.6-4.9,22.4-5.1c0.8,0,2.1,1.4,2.2,2.2c0.2,1.5-0.9,2.4-2.6,2.6c-4.2,0.5-8.5,1.1-12.6,2c-2.5,0.6-4.9,1.6-7.1,2.9
		c-4.9,2.9-5.6,8-1.4,11.9c2.6,2.4,5.9,4.1,9,6c3.5,2.2,7.2,4,10.6,6.3c3.1,2.1,5.2,5.2,6.2,9c1.2,4.6,0,8.6-3.9,11
		c-4.6,2.8-9.5,5.5-14.7,7.2c-16.8,5.4-33.9,9.4-51.7,9.2c-1.1,0-2.2-0.1-3.3-0.2C336.4,333.2,336.4,333,336.4,332.7z"/>
	<path d="M334.7,267c-0.6,2.5-1.1,4.3-1.5,6.2c-2.2,9.5-4.7,18.9-6.5,28.5c-0.7,3.4-0.1,7.2,0.6,10.7c0.7,3.7,3.2,5.5,7,5.3
		c9.6-0.4,18.7-5.3,18.7-18.1c0-7.1-2-13.8-4.8-20.3c-0.3-0.6-0.8-1.2-0.7-1.8c0.2-1.1,0.7-2,1.1-3.1c0.9,0.4,2.5,0.5,2.8,1.2
		c4.2,9.4,7.5,19,5.4,29.5c-2.1,11.1-14.3,19.1-25.4,16.8c-4.2-0.9-7-3.5-8.3-7.6c-1.6-5-1.4-10-0.7-15.1
		c1.4-10.5,4.4-20.5,9.9-29.6c0.4-0.6,0.8-1.2,1.2-1.8C333.6,267.6,333.8,267.5,334.7,267z"/>
	<path d="M192.5,160.2c3.8,1,7.6,1.9,11.4,3.2c2.4,0.8,3.7,2.9,4.1,5.3c1.2,7-0.8,13.1-6,18c-3,2.7-7.5,2.5-10.1-0.2
		c-2.4-2.5-2.3-5.7,0.5-8.3c2.9-2.7,2.7-3.5-0.9-5.1c-1-0.5-2.1-0.9-3-1.5c-3.1-1.8-4-3.7-3.3-6.5c0.7-2.9,2.6-4.2,6.1-4.4
		c0.4,0,0.8,0,1.2,0C192.4,160.6,192.5,160.4,192.5,160.2z"/>
	<path d="M366.3,265.7c0.2,2.3,0.5,4.1,0.6,6c0.7,14.2,1.4,28.3,2,42.5c0,1-0.3,2.3-0.9,3c-1.2,1.2-3.6,0.3-3.7-1.4
		c-1.2-15.9-3.4-31.8,0.7-47.6c0.1-0.5,0.3-1.1,0.5-1.6C365.5,266.4,365.7,266.3,366.3,265.7z"/>
	<path d="M370.9,246.3c-0.4,3.7-1.6,6.2-4.5,7.6c-2.1,1-3.5,0.1-3.6-2.2c-0.1-3,1.1-5.5,3.7-7.2c0.8-0.5,2.3-0.8,3.1-0.4
		C370.3,244.4,370.6,245.8,370.9,246.3z"/>
	<path class="st0" d="M179.4,270.8c-1.9-2.9-2.1-6.3-2.3-9.6c0.2-0.1,0.5-0.1,0.7-0.2c0.8,3.2,1.6,6.4,2.4,9.5
		C180,270.7,179.7,270.8,179.4,270.8z"/>
	<path class="st0" d="M248.4,270.2c7.1,15.7,14.2,31.3,21.6,47.5c-13.8,0-27.1,0-40.6,0c6.1-15.7,12.2-31.6,18.4-47.5
		C247.9,270.2,248.2,270.2,248.4,270.2z"/>
</g>
</svg>
